<svg id="kity_svg_6" xmlns="http://www.w3.org/2000/svg" xmlns:xlink="http://www.w3.org/1999/xlink" version="1.1" width="788" height="643" style="background: rgb(251, 251, 251); visibility: visible;" viewBox="0 0 788 643"><defs id="kity_defs_7"><linearGradient id="kity_linearGradient_17" x1="0" y1="0" x2="0" y2="1"><stop id="kity_stop_18" offset="0" stop-color="rgb(255, 255, 255)"></stop><stop id="kity_stop_19" offset="1" stop-color="rgb(204, 204, 204)"></stop></linearGradient><marker id="kity_marker_2" orient="auto" refX="6" refY="0" viewBox="-7 -7 14 14" markerWidth="7" markerHeight="7" markerUnits="userSpaceOnUse"><path id="kity_path_3" fill="rgb(115, 161, 191)" stroke="none" d="M6,0A6,6,0,1,1,-6,0A6,6,0,1,1,6,0"></path></marker></defs><g id="kity_g_8"><g id="minder1" text-rendering="optimize-speed"><g id="minder_connect_group1"><path id="kity_path_31" fill="none" stroke="rgb(115, 161, 191)" stroke-width="1" d="M116.00000498443842,365.5000046417117A213.5,257,0,0,1,329.5000049844384,108.50000464171171"></path><path id="kity_path_33" fill="none" stroke="rgb(115, 161, 191)" stroke-width="1" d="M419.5000049844384,108.50000464171171C439.5000049844384,108.50000464171171,439.5000049844384,30.500004641711712,459.5000049844384,30.500004641711712"></path><path id="kity_path_35" fill="none" stroke="rgb(115, 161, 191)" stroke-width="1" d="M419.5000049844384,108.50000464171171C439.5000049844384,108.50000464171171,439.5000049844384,82.50000464171171,459.5000049844384,82.50000464171171"></path><path id="kity_path_37" fill="none" stroke="rgb(115, 161, 191)" stroke-width="1" d="M419.5000049844384,108.50000464171171C439.5000049844384,108.50000464171171,439.5000049844384,134.5000046417117,459.5000049844384,134.5000046417117"></path><path id="kity_path_39" fill="none" stroke="rgb(115, 161, 191)" stroke-width="1" d="M536.5000049844384,134.5000046417117C556.5000049844384,134.5000046417117,556.5000049844384,134.5000046417117,576.5000049844384,134.5000046417117"></path><path id="kity_path_41" fill="none" stroke="rgb(115, 161, 191)" stroke-width="1" d="M116.00000498443842,365.5000046417117A214.5,10,0,0,1,330.5000049844384,355.5000046417117"></path><path id="kity_path_43" fill="none" stroke="rgb(115, 161, 191)" stroke-width="1" d="M415.5000049844384,355.5000046417117C435.5000049844384,355.5000046417117,435.5000049844384,238.5000046417117,455.5000049844384,238.5000046417117"></path><path id="kity_path_45" fill="none" stroke="rgb(115, 161, 191)" stroke-width="1" d="M502.5000049844384,238.5000046417117C522.5000049844384,238.5000046417117,522.5000049844384,212.5000046417117,542.5000049844384,212.5000046417117"></path><path id="kity_path_47" fill="none" stroke="rgb(115, 161, 191)" stroke-width="1" d="M502.5000049844384,238.5000046417117C522.5000049844384,238.5000046417117,522.5000049844384,264.5000046417117,542.5000049844384,264.5000046417117"></path><path id="kity_path_49" fill="none" stroke="rgb(115, 161, 191)" stroke-width="1" d="M588.5000049844384,264.5000046417117C608.5000049844384,264.5000046417117,608.5000049844384,264.5000046417117,628.5000049844384,264.5000046417117"></path><path id="kity_path_51" fill="none" stroke="rgb(115, 161, 191)" stroke-width="1" d="M415.5000049844384,355.5000046417117C435.5000049844384,355.5000046417117,435.5000049844384,342.5000046417117,455.5000049844384,342.5000046417117"></path><path id="kity_path_53" fill="none" stroke="rgb(115, 161, 191)" stroke-width="1" d="M503.5000049844384,342.5000046417117C523.5000049844384,342.5000046417117,523.5000049844384,316.5000046417117,543.5000049844384,316.5000046417117"></path><path id="kity_path_55" fill="none" stroke="rgb(115, 161, 191)" stroke-width="1" d="M503.5000049844384,342.5000046417117C523.5000049844384,342.5000046417117,523.5000049844384,368.5000046417117,543.5000049844384,368.5000046417117"></path><path id="kity_path_57" fill="none" stroke="rgb(115, 161, 191)" stroke-width="1" d="M415.5000049844384,355.5000046417117C435.5000049844384,355.5000046417117,435.5000049844384,420.5000046417117,455.5000049844384,420.5000046417117"></path><path id="kity_path_59" fill="none" stroke="rgb(115, 161, 191)" stroke-width="1" d="M510.5000049844384,420.5000046417117C530.5000049844384,420.5000046417117,530.5000049844384,420.5000046417117,550.5000049844384,420.5000046417117"></path><path id="kity_path_61" fill="none" stroke="rgb(115, 161, 191)" stroke-width="1" d="M415.5000049844384,355.5000046417117C435.5000049844384,355.5000046417117,435.5000049844384,472.5000046417117,455.5000049844384,472.5000046417117"></path><path id="kity_path_63" fill="none" stroke="rgb(115, 161, 191)" stroke-width="1" d="M499.5000049844384,472.5000046417117C519.5000049844384,472.5000046417117,519.5000049844384,472.5000046417117,539.5000049844384,472.5000046417117"></path><path id="kity_path_65" fill="none" stroke="rgb(115, 161, 191)" stroke-width="1" d="M116.00000498443842,365.5000046417117A220.5,194,0,0,0,336.5000049844384,559.5000046417117"></path><path id="kity_path_67" fill="none" stroke="rgb(115, 161, 191)" stroke-width="1" d="M473.5000049844384,559.5000046417117C493.5000049844384,559.5000046417117,493.5000049844384,507.5000046417117,513.5000049844384,507.5000046417117"></path><path id="kity_path_69" fill="none" stroke="rgb(115, 161, 191)" stroke-width="1" d="M473.5000049844384,559.5000046417117C493.5000049844384,559.5000046417117,493.5000049844384,559.5000046417117,513.5000049844384,559.5000046417117"></path><path id="kity_path_71" fill="none" stroke="rgb(115, 161, 191)" stroke-width="1" d="M473.5000049844384,559.5000046417117C493.5000049844384,559.5000046417117,493.5000049844384,611.5000046417117,513.5000049844384,611.5000046417117"></path><path id="kity_path_200" fill="none" stroke="rgb(115, 161, 191)" stroke-width="1" d="M419.5000049844384,108.50000464171171C439.5000049844384,108.50000464171171,439.5000049844384,186.5000046417117,459.5000049844384,186.5000046417117"></path></g><g id="minder_node1"><path id="node_outline1" fill="rgb(115, 161, 191)" stroke="rgb(115, 161, 191)" d="M25.50000498443842,345.5000046417117h181a5,5,0,0,1,5,5v30a5,5,0,0,1,-5,5h-181a5,5,0,0,1,-5,-5v-30a5,5,0,0,1,5,-5z" stroke-width="3"></path><g id="node_text1" fill="white"><text id="kity_text_22" text-rendering="inherit" font-size="16" dy=".8em" y="355.1000046059489" x="44.50000498443842">dialect recognition</text></g></g><g id="kity_g_12"><path id="kity_path_13" fill="none" stroke="none" d="M44.50000498443842,365.5000046417117h0v0h0z"></path></g><g id="kity_g_14"><path id="kity_path_15" fill="none" stroke="none" d="M44.50000498443842,365.5000046417117h0v0h0z"></path><path id="kity_path_16" fill="none" stroke="none"></path></g><g id="minder_node2"><g id="node_expander5" style="cursor: pointer;"><path id="kity_path_148" fill="white" stroke="gray" d="M330.50000915676355,108.50000081211329A6,6,0,1,1,318.50000915676355,108.50000081211329A6,6,0,1,1,330.50000915676355,108.50000081211329"></path><path id="kity_path_149" fill="none" stroke="gray" d="M320.00000915676355,108.50000081211329L329.00000915676355,108.50000081211329"></path></g><path id="node_outline6" fill="rgb(238, 243, 246)" stroke="rgb(115, 161, 191)" d="M334.5000095590949,95.50000081211329h82a3,3,0,0,1,3,3v20a3,3,0,0,1,-3,3h-82a3,3,0,0,1,-3,-3v-20a3,3,0,0,1,3,-3z" stroke-width="1"></path><g id="node_text6" fill="black"><text id="kity_text_81" text-rendering="inherit" font-size="14" dy=".8em" y="99.40000078082085" x="351.5000095590949">feature</text></g></g><g id="minder_node3"><g id="node_expander1" style="cursor: pointer;" display="none"><path id="kity_path_136" fill="white" stroke="gray" d="M459.50001107901335,30.499999649822712A6,6,0,1,1,447.50001107901335,30.499999649822712A6,6,0,1,1,459.50001107901335,30.499999649822712"></path><path id="kity_path_137" fill="none" stroke="gray"></path></g><path id="node_outline2" fill="none" stroke="none" d="M464.5000113174319,19.499999649822712h80a5,5,0,0,1,5,5v12a5,5,0,0,1,-5,5h-80a5,5,0,0,1,-5,-5v-12a5,5,0,0,1,5,-5z" stroke-width="3"></path><g id="node_text2" fill="black"><text id="kity_text_73" text-rendering="inherit" font-size="12" dy=".8em" y="22.699999623000622" x="469.5000113174319">raw pcm file</text></g></g><g id="minder_node4"><g id="node_expander2" style="cursor: pointer;" display="none"><path id="kity_path_139" fill="white" stroke="gray" d="M459.50001107901335,82.5000004246831A6,6,0,1,1,447.50001107901335,82.5000004246831A6,6,0,1,1,459.50001107901335,82.5000004246831"></path><path id="kity_path_140" fill="none" stroke="gray"></path></g><path id="node_outline3" fill="none" stroke="none" d="M464.5000113174319,71.5000004246831h44a5,5,0,0,1,5,5v12a5,5,0,0,1,-5,5h-44a5,5,0,0,1,-5,-5v-12a5,5,0,0,1,5,-5z" stroke-width="3"></path><g id="node_text3" fill="black"><text id="kity_text_75" text-rendering="inherit" font-size="12" dy=".8em" y="74.700000397861" x="469.5000113174319">MFCC</text></g></g><g id="minder_node5"><g id="node_expander4" style="cursor: pointer;"><path id="kity_path_145" fill="white" stroke="gray" d="M459.50001107901335,134.50000119954348A6,6,0,1,1,447.50001107901335,134.50000119954348A6,6,0,1,1,459.50001107901335,134.50000119954348"></path><path id="kity_path_146" fill="none" stroke="gray" d="M449.00001107901335,134.50000119954348L458.00001107901335,134.50000119954348"></path></g><path id="node_outline5" fill="none" stroke="none" d="M464.5000113174319,123.50000119954348h67a5,5,0,0,1,5,5v12a5,5,0,0,1,-5,5h-67a5,5,0,0,1,-5,-5v-12a5,5,0,0,1,5,-5z" stroke-width="3"></path><g id="node_text5" fill="#ff0000"><text id="kity_text_79" text-rendering="inherit" font-size="12" dy=".8em" y="126.70000117272139" x="469.5000113174319">FilterBank</text></g></g><g id="minder_node6"><g id="node_expander3" style="cursor: pointer;" display="none"><path id="kity_path_142" fill="white" stroke="gray" d="M576.5000128224492,134.50000119954348A6,6,0,1,1,564.5000128224492,134.50000119954348A6,6,0,1,1,576.5000128224492,134.50000119954348"></path><path id="kity_path_143" fill="none" stroke="gray"></path></g><path id="node_outline4" fill="#ffffff" stroke="none" d="M581.5000130608678,123.50000119954348h69a5,5,0,0,1,5,5v12a5,5,0,0,1,-5,5h-69a5,5,0,0,1,-5,-5v-12a5,5,0,0,1,5,-5z" stroke-width="3"></path><g id="node_text4" fill="#ff0000"><text id="kity_text_77" text-rendering="inherit" font-size="12" dy=".8em" y="126.70000117272139" x="586.5000130608678">0~5500Hz</text></g></g><g id="minder_node7"><g id="node_expander17" style="cursor: pointer;"><path id="kity_path_184" fill="white" stroke="gray" d="M331.5000091716647,355.5000044927001A6,6,0,1,1,319.5000091716647,355.5000044927001A6,6,0,1,1,331.5000091716647,355.5000044927001"></path><path id="kity_path_185" fill="none" stroke="gray" d="M321.0000091716647,355.5000044927001L330.0000091716647,355.5000044927001"></path></g><path id="node_outline18" fill="rgb(238, 243, 246)" stroke="rgb(115, 161, 191)" d="M335.50000957399607,342.5000044927001h77a3,3,0,0,1,3,3v20a3,3,0,0,1,-3,3h-77a3,3,0,0,1,-3,-3v-20a3,3,0,0,1,3,-3z" stroke-width="1"></path><g id="node_text18" fill="black"><text id="kity_text_105" text-rendering="inherit" font-size="14" dy=".8em" y="346.40000446140766" x="352.50000957399607">model</text></g></g><g id="minder_node8"><g id="node_expander9" style="cursor: pointer;"><path id="kity_path_160" fill="white" stroke="gray" d="M455.5000110194087,238.50000274926424A6,6,0,1,1,443.5000110194087,238.50000274926424A6,6,0,1,1,455.5000110194087,238.50000274926424"></path><path id="kity_path_161" fill="none" stroke="gray" d="M445.0000110194087,238.50000274926424L454.0000110194087,238.50000274926424"></path></g><path id="node_outline10" fill="none" stroke="none" d="M460.5000112578273,227.50000274926424h37a5,5,0,0,1,5,5v12a5,5,0,0,1,-5,5h-37a5,5,0,0,1,-5,-5v-12a5,5,0,0,1,5,-5z" stroke-width="3"></path><g id="node_text10" fill="black"><text id="kity_text_89" text-rendering="inherit" font-size="12" dy=".8em" y="230.70000272244215" x="465.5000112578273">RNN</text></g></g><g id="minder_node9"><g id="node_expander6" style="cursor: pointer;" display="none"><path id="kity_path_151" fill="white" stroke="gray" d="M542.5000123158097,212.50000236183405A6,6,0,1,1,530.5000123158097,212.50000236183405A6,6,0,1,1,542.5000123158097,212.50000236183405"></path><path id="kity_path_152" fill="none" stroke="gray"></path></g><path id="node_outline7" fill="none" stroke="none" d="M547.5000125542283,201.50000236183405h42a5,5,0,0,1,5,5v12a5,5,0,0,1,-5,5h-42a5,5,0,0,1,-5,-5v-12a5,5,0,0,1,5,-5z" stroke-width="3"></path><g id="node_text7" fill="black"><text id="kity_text_83" text-rendering="inherit" font-size="12" dy=".8em" y="204.70000233501196" x="552.5000125542283">LSTM</text></g></g><g id="minder_node10"><g id="node_expander8" style="cursor: pointer;"><path id="kity_path_157" fill="white" stroke="gray" d="M542.5000123158097,264.50000313669443A6,6,0,1,1,530.5000123158097,264.50000313669443A6,6,0,1,1,542.5000123158097,264.50000313669443"></path><path id="kity_path_158" fill="none" stroke="gray" d="M532.0000123158097,264.50000313669443L541.0000123158097,264.50000313669443"></path></g><path id="node_outline9" fill="none" stroke="none" d="M547.5000125542283,253.50000313669443h36a5,5,0,0,1,5,5v12a5,5,0,0,1,-5,5h-36a5,5,0,0,1,-5,-5v-12a5,5,0,0,1,5,-5z" stroke-width="3"></path><g id="node_text9" fill="#ff0000"><text id="kity_text_87" text-rendering="inherit" font-size="12" dy=".8em" y="256.70000310987234" x="552.5000125542283">GRU</text></g></g><g id="minder_node11"><g id="node_expander7" style="cursor: pointer;" display="none"><path id="kity_path_154" fill="white" stroke="gray" d="M628.5000135973096,264.50000313669443A6,6,0,1,1,616.5000135973096,264.50000313669443A6,6,0,1,1,628.5000135973096,264.50000313669443"></path><path id="kity_path_155" fill="none" stroke="gray"></path></g><path id="node_outline8" fill="none" stroke="none" d="M633.5000138357282,253.50000313669443h130a5,5,0,0,1,5,5v12a5,5,0,0,1,-5,5h-130a5,5,0,0,1,-5,-5v-12a5,5,0,0,1,5,-5z" stroke-width="3"></path><g id="node_text8" fill="#ff0000"><text id="kity_text_85" text-rendering="inherit" font-size="12" dy=".8em" y="256.70000310987234" x="638.5000138357282">2 layer one-direction</text></g></g><g id="minder_node12"><g id="node_expander12" style="cursor: pointer;"><path id="kity_path_169" fill="white" stroke="gray" d="M455.5000110194087,342.500004298985A6,6,0,1,1,443.5000110194087,342.500004298985A6,6,0,1,1,455.5000110194087,342.500004298985"></path><path id="kity_path_170" fill="none" stroke="gray" d="M445.0000110194087,342.500004298985L454.0000110194087,342.500004298985"></path></g><path id="node_outline13" fill="none" stroke="none" d="M460.5000112578273,331.500004298985h38a5,5,0,0,1,5,5v12a5,5,0,0,1,-5,5h-38a5,5,0,0,1,-5,-5v-12a5,5,0,0,1,5,-5z" stroke-width="3"></path><g id="node_text13" fill="black"><text id="kity_text_95" text-rendering="inherit" font-size="12" dy=".8em" y="334.7000042721629" x="465.5000112578273">CNN</text></g></g><g id="minder_node13"><g id="node_expander10" style="cursor: pointer;" display="none"><path id="kity_path_163" fill="white" stroke="gray" d="M543.5000123307109,316.5000039115548A6,6,0,1,1,531.5000123307109,316.5000039115548A6,6,0,1,1,543.5000123307109,316.5000039115548"></path><path id="kity_path_164" fill="none" stroke="gray"></path></g><path id="node_outline11" fill="none" stroke="none" d="M548.5000125691295,305.5000039115548h37a5,5,0,0,1,5,5v12a5,5,0,0,1,-5,5h-37a5,5,0,0,1,-5,-5v-12a5,5,0,0,1,5,-5z" stroke-width="3"></path><g id="node_text11" fill="black"><text id="kity_text_91" text-rendering="inherit" font-size="12" dy=".8em" y="308.7000038847327" x="553.5000125691295">VGG</text></g></g><g id="minder_node14"><g id="node_expander11" style="cursor: pointer;" display="none"><path id="kity_path_166" fill="white" stroke="gray" d="M543.5000123307109,368.5000046864152A6,6,0,1,1,531.5000123307109,368.5000046864152A6,6,0,1,1,543.5000123307109,368.5000046864152"></path><path id="kity_path_167" fill="none" stroke="gray"></path></g><path id="node_outline12" fill="none" stroke="none" d="M548.5000125691295,357.5000046864152h49a5,5,0,0,1,5,5v12a5,5,0,0,1,-5,5h-49a5,5,0,0,1,-5,-5v-12a5,5,0,0,1,5,-5z" stroke-width="3"></path><g id="node_text12" fill="black"><text id="kity_text_93" text-rendering="inherit" font-size="12" dy=".8em" y="360.7000046595931" x="553.5000125691295">Resnet</text></g></g><g id="minder_node15"><g id="node_expander14" style="cursor: pointer;"><path id="kity_path_175" fill="white" stroke="gray" d="M455.5000110194087,420.5000054612756A6,6,0,1,1,443.5000110194087,420.5000054612756A6,6,0,1,1,455.5000110194087,420.5000054612756"></path><path id="kity_path_176" fill="none" stroke="gray" d="M445.0000110194087,420.5000054612756L454.0000110194087,420.5000054612756"></path></g><path id="node_outline15" fill="none" stroke="none" d="M460.5000112578273,409.5000054612756h45a5,5,0,0,1,5,5v12a5,5,0,0,1,-5,5h-45a5,5,0,0,1,-5,-5v-12a5,5,0,0,1,5,-5z" stroke-width="3"></path><g id="node_text15" fill="black"><text id="kity_text_99" text-rendering="inherit" font-size="12" dy=".8em" y="412.7000054344535" x="465.5000112578273">CRNN</text></g></g><g id="minder_node16"><g id="node_expander13" style="cursor: pointer;" display="none"><path id="kity_path_172" fill="white" stroke="gray" d="M550.500012435019,420.5000054612756A6,6,0,1,1,538.500012435019,420.5000054612756A6,6,0,1,1,550.500012435019,420.5000054612756"></path><path id="kity_path_173" fill="none" stroke="gray"></path></g><path id="node_outline14" fill="none" stroke="none" d="M555.5000126734376,409.5000054612756h71a5,5,0,0,1,5,5v12a5,5,0,0,1,-5,5h-71a5,5,0,0,1,-5,-5v-12a5,5,0,0,1,5,-5z" stroke-width="3"></path><g id="node_text14" fill="black"><text id="kity_text_97" text-rendering="inherit" font-size="12" dy=".8em" y="412.7000054344535" x="560.5000126734376">VGG+GRU</text></g></g><g id="minder_node17"><g id="node_expander16" style="cursor: pointer;"><path id="kity_path_181" fill="white" stroke="gray" d="M455.5000110194087,472.50000623613596A6,6,0,1,1,443.5000110194087,472.50000623613596A6,6,0,1,1,455.5000110194087,472.50000623613596"></path><path id="kity_path_182" fill="none" stroke="gray" d="M445.0000110194087,472.50000623613596L454.0000110194087,472.50000623613596"></path></g><path id="node_outline17" fill="none" stroke="none" d="M460.5000112578273,461.50000623613596h34a5,5,0,0,1,5,5v12a5,5,0,0,1,-5,5h-34a5,5,0,0,1,-5,-5v-12a5,5,0,0,1,5,-5z" stroke-width="3"></path><g id="node_text17" fill="black"><text id="kity_text_103" text-rendering="inherit" font-size="12" dy=".8em" y="464.70000620931387" x="465.5000112578273">ASR</text></g></g><g id="minder_node18"><g id="node_expander15" style="cursor: pointer;" display="none"><path id="kity_path_178" fill="white" stroke="gray" d="M539.5000122711062,472.50000623613596A6,6,0,1,1,527.5000122711062,472.50000623613596A6,6,0,1,1,539.5000122711062,472.50000623613596"></path><path id="kity_path_179" fill="none" stroke="gray"></path></g><path id="node_outline16" fill="none" stroke="none" d="M544.5000125095248,461.50000623613596h61a5,5,0,0,1,5,5v12a5,5,0,0,1,-5,5h-61a5,5,0,0,1,-5,-5v-12a5,5,0,0,1,5,-5z" stroke-width="3"></path><g id="node_text16" fill="black"><text id="kity_text_101" text-rendering="inherit" font-size="12" dy=".8em" y="464.70000620931387" x="549.5000125095248">CTC Loss</text></g></g><g id="minder_node19"><g id="node_expander21" style="cursor: pointer;"><path id="kity_path_196" fill="white" stroke="gray" d="M337.5000092610717,559.500007532537A6,6,0,1,1,325.5000092610717,559.500007532537A6,6,0,1,1,337.5000092610717,559.500007532537"></path><path id="kity_path_197" fill="none" stroke="gray" d="M327.0000092610717,559.500007532537L336.0000092610717,559.500007532537"></path></g><path id="node_outline22" fill="rgb(238, 243, 246)" stroke="rgb(115, 161, 191)" d="M341.50000966340303,546.500007532537h129a3,3,0,0,1,3,3v20a3,3,0,0,1,-3,3h-129a3,3,0,0,1,-3,-3v-20a3,3,0,0,1,3,-3z" stroke-width="1"></path><g id="node_text22" fill="black"><text id="kity_text_113" text-rendering="inherit" font-size="14" dy=".8em" y="550.4000075012445" x="358.50000966340303">augmentation</text></g></g><g id="minder_node20"><g id="node_expander18" style="cursor: pointer;" display="none"><path id="kity_path_187" fill="white" stroke="gray" d="M513.500011883676,507.5000067576766A6,6,0,1,1,501.50001188367605,507.5000067576766A6,6,0,1,1,513.500011883676,507.5000067576766"></path><path id="kity_path_188" fill="none" stroke="gray"></path></g><path id="node_outline19" fill="none" stroke="none" d="M518.5000121220946,496.5000067576766h244a5,5,0,0,1,5,5v12a5,5,0,0,1,-5,5h-244a5,5,0,0,1,-5,-5v-12a5,5,0,0,1,5,-5z" stroke-width="3"></path><g id="node_text19" fill="black"><text id="kity_text_107" text-rendering="inherit" font-size="12" dy=".8em" y="499.7000067308545" x="523.5000121220946">concatenate data with different speakers</text></g></g><g id="minder_node21"><g id="node_expander19" style="cursor: pointer;" display="none"><path id="kity_path_190" fill="white" stroke="gray" d="M513.500011883676,559.500007532537A6,6,0,1,1,501.50001188367605,559.500007532537A6,6,0,1,1,513.500011883676,559.500007532537"></path><path id="kity_path_191" fill="none" stroke="gray"></path></g><path id="node_outline20" fill="none" stroke="none" d="M518.5000121220946,548.500007532537h102a5,5,0,0,1,5,5v12a5,5,0,0,1,-5,5h-102a5,5,0,0,1,-5,-5v-12a5,5,0,0,1,5,-5z" stroke-width="3"></path><g id="node_text20" fill="#ff0000"><text id="kity_text_109" text-rendering="inherit" font-size="12" dy=".8em" y="551.7000075057149" x="523.5000121220946">VAD processing</text></g></g><g id="minder_node22"><g id="node_expander20" style="cursor: pointer;" display="none"><path id="kity_path_193" fill="white" stroke="gray" d="M513.500011883676,611.5000083073974A6,6,0,1,1,501.50001188367605,611.5000083073974A6,6,0,1,1,513.500011883676,611.5000083073974"></path><path id="kity_path_194" fill="none" stroke="gray"></path></g><path id="node_outline21" fill="none" stroke="none" d="M518.5000121220946,600.5000083073974h67a5,5,0,0,1,5,5v12a5,5,0,0,1,-5,5h-67a5,5,0,0,1,-5,-5v-12a5,5,0,0,1,5,-5z" stroke-width="3"></path><g id="node_text21" fill="black"><text id="kity_text_111" text-rendering="inherit" font-size="12" dy=".8em" y="603.7000082805753" x="523.5000121220946">add noise</text></g></g><g id="minder_node23"><g id="node_expander22" style="cursor: pointer;" display="none"><path id="kity_path_205" fill="white" stroke="gray" d="M459.50001107901335,186.50000197440386A6,6,0,1,1,447.50001107901335,186.50000197440386A6,6,0,1,1,459.50001107901335,186.50000197440386"></path><path id="kity_path_206" fill="none" stroke="gray"></path></g><path id="node_outline23" fill="none" stroke="none" d="M464.5000113174319,175.50000197440386h31a5,5,0,0,1,5,5v12a5,5,0,0,1,-5,5h-31a5,5,0,0,1,-5,-5v-12a5,5,0,0,1,5,-5z" stroke-width="3"></path><g id="node_text23" fill="black"><text id="kity_text_202" text-rendering="inherit" font-size="12" dy=".8em" y="178.70000194758177" x="469.5000113174319">PLP</text></g></g></g></g></svg>